<?xml version="1.0" encoding="UTF-8"?>
<svg id="_レイヤー_1" data-name="レイヤー 1" xmlns="http://www.w3.org/2000/svg" viewBox="0 0 70 70">
  <path d="m35,0C15.67,0,0,15.67,0,35,0,51.09,10.86,64.65,25.65,68.73c1.33.37,2.69.66,4.07.88,1.72.25,3.49.39,5.28.39,19.33,0,35-15.67,35-35S54.33,0,35,0ZM3,35c0-4.85,1.08-9.45,3.02-13.57h2.39l15.94,43.75C11.67,60.72,3,48.61,3,35Zm32,32c-.77,0-1.55-.03-2.33-.09l-2.21-6,5.16-14.18,7.03,19.34c-2.46.61-5.01.93-7.65.93Zm4.46-30.83l-1.59-4.37-3.77-10.37h7.11v-3.02h-17v3.02h2.2l7.62,20.92h0s-5.16,14.18-5.16,14.18l-12.77-35.1h5.79v-3.02H7.65C13.27,9.18,23.43,3,35,3c9.8,0,18.59,4.43,24.47,11.4-.8-.46-1.75-.73-2.84-.73-2.53,0-4.54,1.73-5.35,4.06-.93,2.65.22,5.26,1.53,7.55,1.21,2.11,2.71,4.57,1.8,7.09-.04.11-8.24,22.78-8.24,22.78l-6.91-18.98Zm9.96,27.38l-1.46-4.01c.07-.19.14-.37.22-.55,1.5-3.78,2.99-7.57,4.47-11.37,2.21-5.68,4.4-11.37,6.48-17.09,1.21-3.31,2.98-6.79,3.18-10.35.04-.74-.03-1.46-.2-2.14,3.1,4.92,4.89,10.73,4.89,16.96,0,12.46-7.16,23.27-17.58,28.55Z"/>
</svg>