<?xml version="1.0" encoding="UTF-8"?>
<svg id="_レイヤー_1" data-name="レイヤー 1" xmlns="http://www.w3.org/2000/svg" viewBox="0 0 70 70">
  <path d="m35,0C15.67,0,0,15.67,0,35s15.67,35,35,35,35-15.67,35-35S54.33,0,35,0Zm0,67c-17.64,0-32-14.36-32-32S17.36,3,35,3s32,14.35,32,32-14.35,32-32,32Z"/>
  <path d="m24.95,29.4l5.07-9.31h6.4l-7.87,13.4,8.07,13.62h-6.48l-5.2-9.46-5.2,9.46h-6.48l8.07-13.62-7.87-13.4h6.4l5.07,9.31Z"/>
  <path d="m35.95,36.92c0-3.13.7-5.62,2.11-7.48,1.4-1.86,3.32-2.78,5.76-2.78,1.95,0,3.57.73,4.84,2.19v-10.24h5.38v28.5h-4.84l-.26-2.13c-1.34,1.67-3.06,2.5-5.16,2.5-2.36,0-4.26-.93-5.69-2.79-1.43-1.86-2.14-4.45-2.14-7.77Zm5.36.4c0,1.88.33,3.33.98,4.33.66,1,1.61,1.51,2.86,1.51,1.66,0,2.83-.7,3.51-2.1v-7.93c-.67-1.4-1.82-2.1-3.47-2.1-2.59,0-3.88,2.1-3.88,6.3Z"/>
</svg>