<?xml version="1.0" encoding="UTF-8"?>
<svg id="_レイヤー_1" data-name="レイヤー 1" xmlns="http://www.w3.org/2000/svg" viewBox="0 0 120 80">
  <defs>
    <style>
      .cls-1 {
        fill: #fff;
      }
    </style>
  </defs>
  <path class="cls-1" d="m82,22.71v34.8h-44V8h30.06v13.52c0,.65.53,1.19,1.19,1.19h12.75Z"/>
  <polygon class="cls-1" points="79.43 19.71 71.06 19.71 71.06 10.96 79.43 19.71"/>
  <path d="m69.51,5h-33.51c-.56,0-1,.45-1,1v68c0,.55.44,1,1,1h48c.55,0,1-.45,1-1V21.19l-15.49-16.19Zm1.55,5.96l8.37,8.75h-8.37v-8.75Zm-17.78,56.54h1.77c0,.42.09.73.26.92.18.2.46.3.84.3.33,0,.6-.11.8-.34.2-.23.3-.56.3-.99v-5.9h1.76v5.9c0,.55-.12,1.03-.36,1.44-.24.42-.58.74-1.02.97-.44.22-.93.34-1.48.34-.91,0-1.61-.23-2.11-.69-.51-.46-.76-1.11-.76-1.95Zm11.3-.48c-.23-.18-.65-.37-1.26-.57-.61-.19-1.09-.39-1.45-.58-.97-.52-1.45-1.23-1.45-2.12,0-.46.13-.87.39-1.23.26-.36.63-.64,1.12-.85.48-.2,1.03-.3,1.63-.3s1.16.11,1.63.33c.48.22.85.53,1.11.94.27.4.4.86.4,1.37h-1.76c0-.39-.12-.7-.37-.91-.24-.22-.59-.33-1.03-.33s-.77.09-1.01.27c-.24.18-.35.42-.35.72,0,.28.14.51.41.7.28.19.7.36,1.24.53,1,.3,1.73.67,2.18,1.11.46.45.69,1,.69,1.67,0,.74-.28,1.32-.84,1.74-.56.42-1.31.63-2.25.63-.66,0-1.26-.12-1.8-.36s-.95-.57-1.23-.99c-.28-.42-.43-.9-.43-1.46h1.77c0,.95.56,1.42,1.69,1.42.41,0,.74-.09.97-.26.24-.17.36-.41.36-.71,0-.33-.12-.59-.36-.76Zm17.42-9.51h-44V8h30.06v13.52c0,.65.53,1.19,1.19,1.19h12.75v34.8Z"/>
  <path d="m57.25,61.49h1.76v5.9c0,.55-.12,1.03-.36,1.44-.24.42-.58.74-1.02.97-.44.22-.93.34-1.48.34-.91,0-1.61-.23-2.11-.69-.51-.46-.76-1.11-.76-1.95h1.77c0,.42.09.73.26.92.18.2.46.3.84.3.33,0,.6-.11.8-.34.2-.23.3-.56.3-.99v-5.9Z"/>
  <path d="m66.01,66.1c.46.45.69,1,.69,1.67,0,.74-.28,1.32-.84,1.74-.56.42-1.31.63-2.25.63-.66,0-1.26-.12-1.8-.36s-.95-.57-1.23-.99c-.28-.42-.43-.9-.43-1.46h1.77c0,.95.56,1.42,1.69,1.42.41,0,.74-.09.97-.26.24-.17.36-.41.36-.71,0-.33-.12-.59-.36-.76-.23-.18-.65-.37-1.26-.57-.61-.19-1.09-.39-1.45-.58-.97-.52-1.45-1.23-1.45-2.12,0-.46.13-.87.39-1.23.26-.36.63-.64,1.12-.85.48-.2,1.03-.3,1.63-.3s1.16.11,1.63.33c.48.22.85.53,1.11.94.27.4.4.86.4,1.37h-1.76c0-.39-.12-.7-.37-.91-.24-.22-.59-.33-1.03-.33s-.77.09-1.01.27c-.24.18-.35.42-.35.72,0,.28.14.51.41.7.28.19.7.36,1.24.53,1,.3,1.73.67,2.18,1.11Z"/>
  <path class="cls-1" d="m57.25,61.49v5.9c0,.43-.1.76-.3.99-.2.23-.47.34-.8.34-.38,0-.66-.1-.84-.3-.17-.19-.26-.5-.26-.92h-1.77c0,.84.25,1.49.76,1.95.5.46,1.2.69,2.11.69.55,0,1.04-.12,1.48-.34.44-.23.78-.55,1.02-.97.24-.41.36-.89.36-1.44v-5.9h-1.76Z"/>
  <path class="cls-1" d="m63.83,64.99c-.54-.17-.96-.34-1.24-.53-.27-.19-.41-.42-.41-.7,0-.3.11-.54.35-.72.24-.18.58-.27,1.01-.27s.79.11,1.03.33c.25.21.37.52.37.91h1.76c0-.51-.13-.97-.4-1.37-.26-.41-.63-.72-1.11-.94-.47-.22-1.02-.33-1.63-.33s-1.15.1-1.63.3c-.49.21-.86.49-1.12.85-.26.36-.39.77-.39,1.23,0,.89.48,1.6,1.45,2.12.36.19.84.39,1.45.58.61.2,1.03.39,1.26.57.24.17.36.43.36.76,0,.3-.12.54-.36.71-.23.17-.56.26-.97.26-1.13,0-1.69-.47-1.69-1.42h-1.77c0,.56.15,1.04.43,1.46.28.42.69.75,1.23.99s1.14.36,1.8.36c.94,0,1.69-.21,2.25-.63.56-.42.84-1,.84-1.74,0-.67-.23-1.22-.69-1.67-.45-.44-1.18-.81-2.18-1.11Z"/>
</svg>