<?xml version="1.0" encoding="UTF-8"?>
<svg id="_レイヤー_1" data-name="レイヤー 1" xmlns="http://www.w3.org/2000/svg" viewBox="0 0 120 80">
  <defs>
    <style>
      .cls-1 {
        fill: #fff;
      }
    </style>
  </defs>
  <g>
    <path class="cls-1" d="m54.48,22.71v34.8H10.48V8h30.06v13.52c0,.65.53,1.19,1.19,1.19h12.75Z"/>
    <polygon class="cls-1" points="51.9 19.71 43.54 19.71 43.54 10.96 51.9 19.71"/>
    <g>
      <path d="m41.99,5H8.48c-.56,0-1,.45-1,1v68c0,.55.44,1,1,1h48c.54,0,1-.45,1-1V21.19l-15.49-16.19Zm1.55,5.96l8.36,8.75h-8.36v-8.75Zm-21.48,53.98v-3.45h1.76v8.53h-1.76v-3.66h-3.43v3.66h-1.76v-8.53h1.76v3.45h3.43Zm2.76-2.03v-1.42h6.95v1.42h-2.61v7.11h-1.76v-7.11h-2.58Zm13.04,7.11h-1.21l-2.29-6.35.17,4.02v2.33h-1.75v-8.53h2.29l2.19,6.18,2.18-6.18h2.31v8.53h-1.76v-2.33l.17-4.03-2.3,6.36Zm10.92-1.41v1.41h-5.49v-8.53h1.75v7.12h3.74Zm5.7-11.1H10.48V8h30.06v13.52c0,.65.53,1.19,1.19,1.19h12.75v34.8Z"/>
      <polygon points="22.06 61.49 23.82 61.49 23.82 70.02 22.06 70.02 22.06 66.36 18.63 66.36 18.63 70.02 16.87 70.02 16.87 61.49 18.63 61.49 18.63 64.94 22.06 64.94 22.06 61.49"/>
      <polygon points="24.82 61.49 31.77 61.49 31.77 62.91 29.16 62.91 29.16 70.02 27.4 70.02 27.4 62.91 24.82 62.91 24.82 61.49"/>
      <polygon points="39.44 61.49 41.75 61.49 41.75 70.02 39.99 70.02 39.99 67.69 40.16 63.66 37.86 70.02 36.65 70.02 34.36 63.67 34.53 67.69 34.53 70.02 32.78 70.02 32.78 61.49 35.07 61.49 37.26 67.67 39.44 61.49"/>
      <polygon points="48.78 68.61 48.78 70.02 43.29 70.02 43.29 61.49 45.04 61.49 45.04 68.61 48.78 68.61"/>
    </g>
    <g>
      <path class="cls-1" d="m22.06,61.49v3.45h-3.43v-3.45h-1.76v8.53h1.76v-3.66h3.43v3.66h1.76v-8.53h-1.76Z"/>
      <path class="cls-1" d="m24.82,61.49v1.42h2.58v7.11h1.76v-7.11h2.61v-1.42h-6.95Z"/>
      <path class="cls-1" d="m39.44,61.49l-2.18,6.18-2.19-6.18h-2.29v8.53h1.75v-2.33l-.17-4.02,2.29,6.35h1.21l2.3-6.36-.17,4.03v2.33h1.76v-8.53h-2.31Z"/>
      <path class="cls-1" d="m45.04,68.61v-7.12h-1.75v8.53h5.49v-1.41h-3.74Z"/>
    </g>
  </g>
  <g>
    <path class="cls-1" d="m109.52,22.71v34.8h-44V8h30.06v13.52c0,.65.54,1.19,1.19,1.19h12.75Z"/>
    <g>
      <path d="m97.04,5h-33.52c-.56,0-1,.45-1,1v68c0,.55.44,1,1,1h48c.55,0,1-.45,1-1V21.19l-15.48-16.19Zm1.54,5.96l8.37,8.75h-8.37v-8.75Zm-19.56,57.1c.28.43.72.64,1.32.64.54,0,.95-.12,1.22-.37.26-.25.42-.63.46-1.15h1.75c-.06.91-.4,1.64-1.01,2.16-.61.53-1.42.8-2.42.8-1.09,0-1.95-.37-2.58-1.11s-.94-1.75-.94-3.03v-.52c0-.82.14-1.55.43-2.17.29-.63.7-1.1,1.24-1.44.54-.33,1.16-.5,1.87-.5.99,0,1.78.26,2.38.79.6.53.95,1.27,1.05,2.22h-1.76c-.04-.55-.2-.95-.46-1.2-.27-.24-.67-.37-1.21-.37-.58,0-1.02.21-1.31.63-.29.42-.44,1.07-.45,1.96v.64c0,.92.14,1.6.42,2.02Zm9.98-1.04c-.23-.18-.66-.37-1.26-.57-.61-.19-1.1-.39-1.45-.58-.97-.52-1.46-1.23-1.46-2.12,0-.46.13-.87.39-1.23.26-.36.64-.64,1.12-.85.49-.2,1.04-.3,1.64-.3s1.15.11,1.63.33c.48.22.85.53,1.11.94.26.4.4.86.4,1.37h-1.76c0-.39-.12-.7-.37-.91-.25-.22-.59-.33-1.04-.33s-.76.09-1,.27-.36.42-.36.72c0,.28.14.51.42.7.28.19.69.36,1.24.53,1,.3,1.72.67,2.18,1.11.46.45.69,1,.69,1.67,0,.74-.28,1.32-.84,1.74-.56.42-1.31.63-2.26.63-.65,0-1.25-.12-1.79-.36-.54-.24-.95-.57-1.23-.99-.29-.42-.43-.9-.43-1.46h1.76c0,.95.57,1.42,1.69,1.42.42,0,.75-.09.98-.26.24-.17.35-.41.35-.71,0-.33-.11-.59-.35-.76Zm7.38,0c-.24-.18-.66-.37-1.27-.57-.61-.19-1.09-.39-1.45-.58-.96-.52-1.45-1.23-1.45-2.12,0-.46.13-.87.39-1.23.26-.36.63-.64,1.12-.85.49-.2,1.03-.3,1.64-.3s1.15.11,1.63.33c.47.22.84.53,1.11.94.26.4.39.86.39,1.37h-1.75c0-.39-.13-.7-.37-.91-.25-.22-.6-.33-1.04-.33s-.76.09-1,.27-.36.42-.36.72c0,.28.14.51.42.7.28.19.69.36,1.23.53,1,.3,1.73.67,2.19,1.11.45.45.68,1,.68,1.67,0,.74-.28,1.32-.83,1.74-.56.42-1.32.63-2.26.63-.66,0-1.25-.12-1.79-.36-.54-.24-.95-.57-1.24-.99-.28-.42-.42-.9-.42-1.46h1.76c0,.95.56,1.42,1.69,1.42.42,0,.74-.09.98-.26.23-.17.35-.41.35-.71,0-.33-.12-.59-.35-.76Zm13.14-9.51h-44V8h30.06v13.52c0,.65.54,1.19,1.19,1.19h12.75v34.8Z"/>
      <path d="m78.6,65.4v.64c0,.92.14,1.6.42,2.02.28.43.72.64,1.32.64.54,0,.95-.12,1.22-.37.26-.25.42-.63.46-1.15h1.75c-.06.91-.4,1.64-1.01,2.16-.61.53-1.42.8-2.42.8-1.09,0-1.95-.37-2.58-1.11s-.94-1.75-.94-3.03v-.52c0-.82.14-1.55.43-2.17.29-.63.7-1.1,1.24-1.44.54-.33,1.16-.5,1.87-.5.99,0,1.78.26,2.38.79.6.53.95,1.27,1.05,2.22h-1.76c-.04-.55-.2-.95-.46-1.2-.27-.24-.67-.37-1.21-.37-.58,0-1.02.21-1.31.63-.29.42-.44,1.07-.45,1.96Z"/>
      <path d="m86.95,63.04c-.24.18-.36.42-.36.72,0,.28.14.51.42.7.28.19.69.36,1.24.53,1,.3,1.72.67,2.18,1.11.46.45.69,1,.69,1.67,0,.74-.28,1.32-.84,1.74-.56.42-1.31.63-2.26.63-.65,0-1.25-.12-1.79-.36-.54-.24-.95-.57-1.23-.99-.29-.42-.43-.9-.43-1.46h1.76c0,.95.57,1.42,1.69,1.42.42,0,.75-.09.98-.26.24-.17.35-.41.35-.71,0-.33-.11-.59-.35-.76-.23-.18-.66-.37-1.26-.57-.61-.19-1.1-.39-1.45-.58-.97-.52-1.46-1.23-1.46-2.12,0-.46.13-.87.39-1.23.26-.36.64-.64,1.12-.85.49-.2,1.04-.3,1.64-.3s1.15.11,1.63.33c.48.22.85.53,1.11.94.26.4.4.86.4,1.37h-1.76c0-.39-.12-.7-.37-.91-.25-.22-.59-.33-1.04-.33s-.76.09-1,.27Z"/>
      <path d="m97.81,66.1c.45.45.68,1,.68,1.67,0,.74-.28,1.32-.83,1.74-.56.42-1.32.63-2.26.63-.66,0-1.25-.12-1.79-.36-.54-.24-.95-.57-1.24-.99-.28-.42-.42-.9-.42-1.46h1.76c0,.95.56,1.42,1.69,1.42.42,0,.74-.09.98-.26.23-.17.35-.41.35-.71,0-.33-.12-.59-.35-.76-.24-.18-.66-.37-1.27-.57-.61-.19-1.09-.39-1.45-.58-.96-.52-1.45-1.23-1.45-2.12,0-.46.13-.87.39-1.23.26-.36.63-.64,1.12-.85.49-.2,1.03-.3,1.64-.3s1.15.11,1.63.33c.47.22.84.53,1.11.94.26.4.39.86.39,1.37h-1.75c0-.39-.13-.7-.37-.91-.25-.22-.6-.33-1.04-.33s-.76.09-1,.27-.36.42-.36.72c0,.28.14.51.42.7.28.19.69.36,1.23.53,1,.3,1.73.67,2.19,1.11Z"/>
    </g>
    <g>
      <path class="cls-1" d="m81.56,68.33c-.27.25-.68.37-1.22.37-.6,0-1.04-.21-1.32-.64-.28-.42-.42-1.1-.42-2.02v-.64c0-.89.16-1.54.45-1.96.29-.42.73-.63,1.31-.63.54,0,.94.13,1.21.37.26.25.42.65.46,1.2h1.76c-.1-.95-.45-1.69-1.05-2.22-.6-.53-1.39-.79-2.38-.79-.71,0-1.33.17-1.87.5-.54.34-.95.81-1.24,1.44-.29.62-.43,1.35-.43,2.17v.52c0,1.28.31,2.29.94,3.03s1.49,1.11,2.58,1.11c1,0,1.81-.27,2.42-.8.61-.52.95-1.25,1.01-2.16h-1.75c-.04.52-.2.9-.46,1.15Z"/>
      <path class="cls-1" d="m88.25,64.99c-.55-.17-.96-.34-1.24-.53-.28-.19-.42-.42-.42-.7,0-.3.12-.54.36-.72s.57-.27,1-.27.79.11,1.04.33c.25.21.37.52.37.91h1.76c0-.51-.14-.97-.4-1.37-.26-.41-.63-.72-1.11-.94-.48-.22-1.02-.33-1.63-.33s-1.15.1-1.64.3c-.48.21-.86.49-1.12.85-.26.36-.39.77-.39,1.23,0,.89.49,1.6,1.46,2.12.35.19.84.39,1.45.58.6.2,1.03.39,1.26.57.24.17.35.43.35.76,0,.3-.11.54-.35.71-.23.17-.56.26-.98.26-1.12,0-1.69-.47-1.69-1.42h-1.76c0,.56.14,1.04.43,1.46.28.42.69.75,1.23.99.54.24,1.14.36,1.79.36.95,0,1.7-.21,2.26-.63.56-.42.84-1,.84-1.74,0-.67-.23-1.22-.69-1.67-.46-.44-1.18-.81-2.18-1.11Z"/>
      <path class="cls-1" d="m95.62,64.99c-.54-.17-.95-.34-1.23-.53-.28-.19-.42-.42-.42-.7,0-.3.12-.54.36-.72s.57-.27,1-.27.79.11,1.04.33c.24.21.37.52.37.91h1.75c0-.51-.13-.97-.39-1.37-.27-.41-.64-.72-1.11-.94-.48-.22-1.02-.33-1.63-.33s-1.15.1-1.64.3c-.49.21-.86.49-1.12.85-.26.36-.39.77-.39,1.23,0,.89.49,1.6,1.45,2.12.36.19.84.39,1.45.58.61.2,1.03.39,1.27.57.23.17.35.43.35.76,0,.3-.12.54-.35.71-.24.17-.56.26-.98.26-1.13,0-1.69-.47-1.69-1.42h-1.76c0,.56.14,1.04.42,1.46.29.42.7.75,1.24.99.54.24,1.13.36,1.79.36.94,0,1.7-.21,2.26-.63.55-.42.83-1,.83-1.74,0-.67-.23-1.22-.68-1.67-.46-.44-1.19-.81-2.19-1.11Z"/>
    </g>
  </g>
</svg>