<?xml version="1.0" encoding="UTF-8"?>
<svg id="_レイヤー_1" data-name="レイヤー 1" xmlns="http://www.w3.org/2000/svg" viewBox="0 0 70 70">
  <path d="m35,0C15.67,0,0,15.67,0,35s15.67,35,35,35,35-15.67,35-35S54.33,0,35,0Zm0,67c-17.64,0-32-14.36-32-32S17.36,3,35,3s32,14.36,32,32-14.36,32-32,32Z"/>
  <g>
    <path d="m48.08,48.44l-.71-.71c-.39-.39-.39-1.02,0-1.41l11.31-11.31-11.31-11.31c-.39-.39-.39-1.02,0-1.41l.71-.71c.39-.39,1.02-.39,1.41,0l13.44,13.44-13.44,13.44c-.39.39-1.02.39-1.41,0Z"/>
    <path d="m21.92,21.56l.71.71c.39.39.39,1.02,0,1.41l-11.31,11.31,11.31,11.31c.39.39.39,1.02,0,1.41l-.71.71c-.39.39-1.02.39-1.41,0l-13.44-13.44,13.44-13.44c.39-.39,1.02-.39,1.41,0Z"/>
    <rect x="20" y="33.5" width="30" height="3" rx="1" ry="1" transform="translate(-9.86 55.92) rotate(-70)"/>
  </g>
</svg>