<?xml version="1.0" encoding="UTF-8"?>
<svg id="_レイヤー_1" data-name="レイヤー 1" xmlns="http://www.w3.org/2000/svg" viewBox="0 0 120 80">
  <defs>
    <style>
      .cls-1 {
        fill: #fff;
      }
    </style>
  </defs>
  <g>
    <path d="m110.49,3.92v53.82c0,.55-.44,1-1,1h-36.89v6.22h3.65c.33,0,.65.16.83.44l6.69,10.12c.44.66-.04,1.55-.84,1.55h-34.01c-.8,0-1.28-.89-.84-1.55l6.69-10.12c.18-.28.49-.44.83-.44h3.65v-6.22h-23.06v-8.36h69.57V6.88c0-.55-.45-1-1-1H27.09c-.55,0-1,.45-1,1v23.19h-4.74V3.92c0-.55.45-1,1-1h87.14c.56,0,1,.45,1,1Z"/>
    <path class="cls-1" d="m105.76,6.88v43.5H36.19v-17.31c0-1.65-1.34-3-3-3h-7.1V6.88c0-.55.45-1,1-1h77.67c.55,0,1,.45,1,1Z"/>
  </g>
  <g>
    <rect x="9.51" y="32.08" width="24.68" height="45" rx="1" ry="1"/>
    <rect class="cls-1" x="12.09" y="36.24" width="19.53" height="33.21" rx="1" ry="1"/>
    <path class="cls-1" d="m24.35,34.58h-5c-.28,0-.5-.22-.5-.5s.22-.5.5-.5h5c.28,0,.5.22.5.5s-.22.5-.5.5Z"/>
    <circle class="cls-1" cx="21.85" cy="73.32" r="2.5"/>
  </g>
</svg>