<?xml version="1.0" encoding="UTF-8"?>
<svg id="_レイヤー_1" data-name="レイヤー 1" xmlns="http://www.w3.org/2000/svg" viewBox="0 0 70 70">
  <path d="m35,0C15.67,0,0,15.67,0,35s15.67,35,35,35,35-15.67,35-35S54.33,0,35,0Zm0,67c-17.65,0-32-14.35-32-32S17.35,3,35,3s32,14.36,32,32-14.36,32-32,32Z"/>
  <path d="m33.84,41.54h-9.76l-1.86,5.57h-5.92l10.06-27.02h5.16l10.11,27.02h-5.92l-1.87-5.57Zm-8.26-4.51h6.75l-3.4-10.11-3.36,10.11Z"/>
  <path d="m43.77,21.83c0-.8.27-1.47.81-1.99s1.27-.78,2.2-.78,1.64.26,2.19.78c.54.52.82,1.18.82,1.99s-.28,1.48-.83,2c-.55.52-1.28.78-2.18.78s-1.63-.26-2.18-.78c-.55-.52-.83-1.19-.83-2Zm5.7,25.27h-5.38v-20.08h5.38v20.08Z"/>
</svg>