<?xml version="1.0" encoding="UTF-8"?>
<svg id="_レイヤー_1" data-name="レイヤー 1" xmlns="http://www.w3.org/2000/svg" viewBox="0 0 70 70">
  <path d="m35,0C15.67,0,0,15.67,0,35s15.67,35,35,35,35-15.67,35-35S54.33,0,35,0Zm0,67c-17.64,0-32-14.36-32-32S17.36,3,35,3s32,14.35,32,32-14.35,32-32,32Z"/>
  <path d="m21.72,37.58v9.52h-5.57v-27.02h10.54c2.03,0,3.81.37,5.35,1.11,1.54.74,2.72,1.8,3.55,3.16.83,1.37,1.24,2.92,1.24,4.67,0,2.65-.91,4.73-2.72,6.26-1.81,1.53-4.32,2.29-7.52,2.29h-4.88Zm0-4.51h4.97c1.47,0,2.59-.35,3.37-1.04.77-.69,1.16-1.68,1.16-2.97s-.39-2.39-1.17-3.21-1.86-1.24-3.23-1.26h-5.1v8.48Z"/>
  <path d="m49.66,41.55c0-.66-.33-1.17-.97-1.55-.65-.38-1.69-.71-3.13-1.01-4.78-1-7.16-3.03-7.16-6.09,0-1.78.74-3.27,2.22-4.46,1.48-1.19,3.41-1.79,5.8-1.79,2.55,0,4.59.6,6.11,1.8,1.53,1.2,2.29,2.76,2.29,4.68h-5.36c0-.77-.25-1.4-.74-1.9-.5-.5-1.27-.75-2.32-.75-.9,0-1.6.2-2.1.61-.5.41-.74.93-.74,1.56,0,.59.28,1.07.84,1.44.56.37,1.51.68,2.85.95,1.34.27,2.46.57,3.38.9,2.83,1.04,4.25,2.84,4.25,5.4,0,1.83-.79,3.31-2.36,4.44-1.57,1.13-3.6,1.7-6.09,1.7-1.68,0-3.18-.3-4.48-.9-1.3-.6-2.33-1.42-3.07-2.47-.74-1.04-1.11-2.17-1.11-3.39h5.08c.05.95.4,1.68,1.06,2.19.66.51,1.53.76,2.63.76,1.03,0,1.8-.19,2.33-.58.53-.39.79-.9.79-1.53Z"/>
</svg>