<?xml version="1.0" encoding="UTF-8"?>
<svg id="_レイヤー_2" data-name="レイヤー 2" xmlns="http://www.w3.org/2000/svg" viewBox="0 0 70 70">
  <g id="logo">
    <rect id="bg" width="70" height="70" fill="none"/>
    <g id="logo-2" data-name="logo">
      <path d="m6.28,31H.23C.08,32.31,0,33.65,0,35,0,47.19,6.24,57.93,15.69,64.2c3.95,2.62,8.46,4.45,13.31,5.29v-6.11c-13.12-2.77-23-14.44-23-28.38,0-1.36.09-2.69.27-4h0Zm63.5,0h-6.05c.18,1.31.27,2.64.27,4,0,13.93-9.88,25.6-23,28.38v6.11c16.47-2.85,29-17.2,29-34.49,0-1.35-.08-2.69-.23-4h0ZM35,0C21.44,0,9.67,7.72,3.86,19h6.96c5.2-7.83,14.09-13,24.18-13s18.98,5.17,24.18,13h6.96c-2.71-5.27-6.73-9.76-11.61-13.05C48.95,2.19,42.23,0,35,0h0Z"/>
      <path d="m69.3,28h-30.95c-.19,0-.35.16-.35.35v41.52c-.99.09-1.99.13-3,.13s-2.01-.04-3-.13V28.35c0-.19-.16-.35-.35-.35H.7c.42-2.07,1.02-4.08,1.79-6h65.01c.77,1.92,1.38,3.93,1.8,6Z"/>
    </g>
  </g>
</svg>