<svg xmlns="http://www.w3.org/2000/svg" width="32" height="32" viewBox="0 0 32 32">
  <g id="グループ_103" data-name="グループ 103" transform="translate(-1151 -60.027)">
    <path id="パス_2" data-name="パス 2" d="M22.813,3.027A6.2,6.2,0,0,1,29,9.214V22.84a6.194,6.194,0,0,1-6.187,6.187H9.187A6.194,6.194,0,0,1,3,22.84V9.214A6.2,6.2,0,0,1,9.187,3.027Zm0-3H9.187A9.187,9.187,0,0,0,0,9.214V22.84a9.187,9.187,0,0,0,9.187,9.187H22.813A9.187,9.187,0,0,0,32,22.84V9.214A9.187,9.187,0,0,0,22.813.027Z" transform="translate(1151 60)" fill="#fff"/>
    <path id="パス_3" data-name="パス 3" d="M24.538,5.576a1.913,1.913,0,1,0,1.913,1.913,1.912,1.912,0,0,0-1.913-1.913Z" transform="translate(1151 60)" fill="#fff"/>
    <path id="パス_4" data-name="パス 4" d="M16,10.6a5.453,5.453,0,1,1-5.453,5.453A5.459,5.459,0,0,1,16,10.6Zm0-2.75a8.2,8.2,0,1,0,8.2,8.2,8.2,8.2,0,0,0-8.2-8.2Z" transform="translate(1151 60)" fill="#fff"/>
  </g>
</svg>
